<?xml version="1.0" encoding="UTF-8" standalone="no"?><!-- Generator: Gravit.io --><svg xmlns="http://www.w3.org/2000/svg" xmlns:xlink="http://www.w3.org/1999/xlink" style="isolation:isolate" viewBox="0 0 110 110" width="110pt" height="110pt"><defs><clipPath id="_clipPath_lnt0EDfqbSVstBMdTvnGh3DsYB9rIOvW"><rect width="110" height="110"/></clipPath></defs><g clip-path="url(#_clipPath_lnt0EDfqbSVstBMdTvnGh3DsYB9rIOvW)"><circle vector-effect="non-scaling-stroke" cx="54.99999999999998" cy="62.5" r="40" fill="rgb(39,49,73)"/><line x1="50" y1="10" x2="0" y2="40"/><text transform="matrix(1,0,0,1,33.48,49.211)" style="font-family:'Ultra';font-weight:400;font-size:24px;font-style:normal;fill:#F2F0F0;stroke:none;">UR</text><path d=" M 55.013 81.382 L 59.408 81.382 L 59.408 81.382 Q 60.409 81.382 61.08 81.211 L 61.08 81.211 L 61.08 81.211 Q 61.751 81.04 62.154 80.564 L 62.154 80.564 L 62.154 80.564 Q 62.557 80.088 62.704 79.258 L 62.704 79.258 L 62.704 79.258 Q 62.85 78.428 62.85 77.134 L 62.85 77.134 L 71.395 77.134 L 71.395 90.439 L 36.605 90.439 L 36.605 81.382 L 36.605 81.382 Q 38.753 81.382 39.681 80.808 L 39.681 80.808 L 39.681 80.808 Q 40.609 80.234 40.609 78.647 L 40.609 78.647 L 40.609 66.294 L 40.609 66.294 Q 40.609 64.683 39.681 64.109 L 39.681 64.109 L 39.681 64.109 Q 38.753 63.535 36.605 63.535 L 36.605 63.535 L 36.605 54.478 L 71.395 54.478 L 71.395 67.783 L 62.85 67.783 L 62.85 67.783 Q 62.85 66.489 62.704 65.659 L 62.704 65.659 L 62.704 65.659 Q 62.557 64.829 62.154 64.365 L 62.154 64.365 L 62.154 64.365 Q 61.751 63.901 61.08 63.718 L 61.08 63.718 L 61.08 63.718 Q 60.409 63.535 59.408 63.535 L 59.408 63.535 L 55.013 63.535 L 55.013 70.029 L 62.801 70.029 L 62.801 74.351 L 55.013 74.351 L 55.013 81.382 L 55.013 81.382 Z " fill="rgb(39,49,73)"/><path d=" M 55.013 81.382 L 59.408 81.382 L 59.408 81.382 Q 60.409 81.382 61.08 81.211 L 61.08 81.211 L 61.08 81.211 Q 61.751 81.04 62.154 80.564 L 62.154 80.564 L 62.154 80.564 Q 62.557 80.088 62.704 79.258 L 62.704 79.258 L 62.704 79.258 Q 62.85 78.428 62.85 77.134 L 62.85 77.134 L 71.395 77.134 L 71.395 90.439 L 36.605 90.439 L 36.605 81.382 L 36.605 81.382 Q 38.753 81.382 39.681 80.808 L 39.681 80.808 L 39.681 80.808 Q 40.609 80.234 40.609 78.647 L 40.609 78.647 L 40.609 66.294 L 40.609 66.294 Q 40.609 64.683 39.681 64.109 L 39.681 64.109 L 39.681 64.109 Q 38.753 63.535 36.605 63.535 L 36.605 63.535 L 36.605 54.478 L 71.395 54.478 L 71.395 67.783 L 62.85 67.783 L 62.85 67.783 Q 62.85 66.489 62.704 65.659 L 62.704 65.659 L 62.704 65.659 Q 62.557 64.829 62.154 64.365 L 62.154 64.365 L 62.154 64.365 Q 61.751 63.901 61.08 63.718 L 61.08 63.718 L 61.08 63.718 Q 60.409 63.535 59.408 63.535 L 59.408 63.535 L 55.013 63.535 L 55.013 70.029 L 62.801 70.029 L 62.801 74.351 L 55.013 74.351 L 55.013 81.382 L 55.013 81.382 Z " fill="rgb(255,255,0)"/><g style="isolation: isolate;"><path d=" M 55.013 81.382 L 59.408 81.382 L 59.408 81.382 Q 60.409 81.382 61.08 81.211 L 61.08 81.211 L 61.08 81.211 Q 61.751 81.04 62.154 80.564 L 62.154 80.564 L 62.154 80.564 Q 62.557 80.088 62.704 79.258 L 62.704 79.258 L 62.704 79.258 Q 62.85 78.428 62.85 77.134 L 62.85 77.134 L 71.395 77.134 L 71.395 90.439 L 36.605 90.439 L 36.605 81.382 L 36.605 81.382 Q 38.753 81.382 39.681 80.808 L 39.681 80.808 L 39.681 80.808 Q 40.609 80.234 40.609 78.647 L 40.609 78.647 L 40.609 66.294 L 40.609 66.294 Q 40.609 64.683 39.681 64.109 L 39.681 64.109 L 39.681 64.109 Q 38.753 63.535 36.605 63.535 L 36.605 63.535 L 36.605 54.478 L 71.395 54.478 L 71.395 67.783 L 62.85 67.783 L 62.85 67.783 Q 62.85 66.489 62.704 65.659 L 62.704 65.659 L 62.704 65.659 Q 62.557 64.829 62.154 64.365 L 62.154 64.365 L 62.154 64.365 Q 61.751 63.901 61.08 63.718 L 61.08 63.718 L 61.08 63.718 Q 60.409 63.535 59.408 63.535 L 59.408 63.535 L 55.013 63.535 L 55.013 70.029 L 62.801 70.029 L 62.801 74.351 L 55.013 74.351 L 55.013 81.382 L 55.013 81.382 Z " fill="none" vector-effect="non-scaling-stroke" stroke-width="1" stroke="rgb(39,49,73)" stroke-linejoin="miter" stroke-linecap="square" stroke-miterlimit="3"/></g><line x1="-10" y1="-15" x2="-60" y2="15" vector-effect="non-scaling-stroke" stroke-width="3" stroke="rgb(0,0,0)" stroke-linejoin="miter" stroke-linecap="square" stroke-miterlimit="3"/><path d=" M 0 40 L 57.507 6.596 L 110 40" fill="none" vector-effect="non-scaling-stroke" stroke-width="5" stroke="rgb(39,49,73)" stroke-linejoin="miter" stroke-linecap="square" stroke-miterlimit="3"/></g></svg>